<?xml version="1.0" encoding="UTF-8"?><svg id="Ebene_2" xmlns="http://www.w3.org/2000/svg" viewBox="0 0 193.67 184.34"><defs><style>.cls-1{fill:#f2c63b;}.cls-2{fill:#141209;}.cls-3{fill:#f3f3f3;}</style></defs><g id="Layer_1"><g><path class="cls-2" d="M75.5,184.34c.65-1.19,1.25-2.41,1.94-3.57,3.48-5.82,5.54-14.3,5.09-21.02-7.56-.86-15.11-1.71-22.83-2.59-1.9,8.29-3.24,17.04-11.21,22.43-.07-2.33,2.41-2.98,3.27-4.73,1-2.02,2.23-3.94,3.1-6.01,.83-1.98,1.38-4.08,1.92-6.16,.54-2.06,.92-4.17,1.4-6.36-2.74-.89-5.19-1.68-7.89-2.55-1.27,2.41-2.49,4.9-3.87,7.29-1.32,2.28-2.44,4.86-5.75,6.05,2.92-4.8,5.5-9.04,8.28-13.61-4.26-2.03-8.09-3.86-12-5.72-3.62,5.93-6.93,11.97-12.1,16.58-.28-.18-.55-.35-.83-.53,.34-.61,.62-1.25,1.03-1.81,3.57-4.85,7.16-9.68,10.82-14.62-4.64-3.4-8.79-6.43-13.13-9.6-1.91,1.81-3.05,4.81-5.86,5.73-.19-.2-.37-.41-.56-.61,1.74-2.09,3.49-4.18,5.3-6.34-1.52-1.6-2.85-3-4.31-4.54-4.72,4.12-9.27,8.48-15.74,9.78,5.13-3.28,10.38-6.36,14.46-11.16-1.25-1.8-2.53-3.52-3.69-5.32-3.98-6.17-6.8-12.78-6.99-20.23-.09-3.54-2.7-4.6-5.35-6.19,1.18-.25,2.15-.39,3.08-.66,1.48-.43,2.62-1.05,3.11-2.85,3.17-11.73,11.16-19.17,21.91-24.01,2.93-1.32,6-2.31,9.11-3.5-4.99-8.16-8.94-16.74-11.3-26.01-2.4-9.43-3.46-18.91-1-28.5,1.01-3.92,2.72-7.5,5.64-10.41,3.77-3.75,7.16-4.07,11.05-.46,2.26,2.1,4.43,4.59,5.75,7.34,3.35,6.97,6.2,14.18,9.24,21.31,.29,.69,.46,1.44,.74,2.14,.06,.15,.33,.22,.35,.23,.52-3.01,1.02-6.08,1.62-9.13,.21-1.04,.61-2.07,1.06-3.04,2.81-6.19,8.1-7.46,13.39-3.14,4.21,3.43,7.04,7.89,8.79,12.98,3.99,11.62,7.9,23.26,11.77,34.91,.61,1.85,1.38,2.96,3.49,3.59,6.2,1.87,11.07,5.75,14.72,11.1,.89,1.31,1.76,1.87,3.42,1.59,11.04-1.83,20.7,1.26,29.2,8.37,.25,.21,.54,.36,.22,.15,5.23-2.57,9.96-5.47,15.08-7.27,9.28-3.27,17.27-.48,23.22,7.34,.85,1.11,1.6,2.31,2.3,3.52,1.11,1.94,1.89,3.89,4.64,4.41,2.06,.39,3.36,3.28,3.07,5.17-.33,2.12-2.35,4.06-4.61,4.42-2.58,.4-4.86-.73-5.93-2.94-.98-2.04-.56-4.2,1.21-5.9,.53-.51,1.15-.92,2.06-1.62-1.82-2.65-3.36-5.39-5.38-7.73-4.9-5.7-11.24-7.44-18.46-5.73-5.66,1.34-10.61,4.15-15.17,7.89,1.71,2.3,3.45,4.47,5.01,6.76,.97,1.42,1.81,2.95,2.47,4.53,1.78,4.23,3.68,8.3,6.23,12.23,5.75,8.87,2.28,20.53-6.87,25.7-1.16,.66-2.25,1.65-3.03,2.74-10.63,14.67-29.3,19.38-44.98,11.98-.9-.43-2.09-.69-3.03-.5-6.11,1.21-12.2,2.58-18.71,3.98-.23,2.26-.37,5.14-.83,7.98-.88,5.49-2.67,10.65-5.84,15.29-.22,.32-.23,.78-.33,1.18h-1.95Zm-8.28-117.87c-.37-1.1-.73-2.19-1.11-3.27-3.81-10.89-7.46-21.83-11.49-32.64-2.48-6.65-5.3-13.21-8.46-19.56-1.45-2.91-3.85-5.47-6.25-7.73-2.39-2.27-5.3-2.15-7.52,.25-1.94,2.09-3.66,4.56-4.82,7.16-2.34,5.22-2.75,10.86-2.41,16.52,.85,13.99,5.58,26.72,12.65,38.7,.88,1.48,1.81,1.68,3.39,1.48,4.6-.57,9.22-1.12,13.85-1.29,3.96-.15,7.95,.23,12.17,.38Zm-7.11,11.14c-.51,.78-1.05,1.45-1.43,2.21-1.21,2.41-2.53,4.78-3.52,7.28-8.01,20.33-8.48,41.51-6.82,62.89,.05,.62,.58,1.54,1.1,1.73,2.88,1.08,5.82,1.98,8.94,3.01,.41-4,.77-7.52,1.13-11.05,.25,.03,.5,.05,.74,.08,1.02,3.74-.37,7.53-.19,11.36,1.27,.26,2.38,.49,3.8,.78-4.75-30.47-2.91-59.29,17.98-84.41-4.49-.33-7.54,1.8-10.78,3.11,.22,4.65-.87,6.59-3.96,7.34-2.98,.72-5.09-.56-7.01-4.33Zm32.96-9.67s.04-.47-.08-.83c-4.18-12.35-8.13-24.78-12.71-36.97-1.39-3.69-4.08-7.15-6.9-10-4.75-4.78-9.8-3.5-11.97,2.82-2.28,6.66-2.85,13.53-.62,20.35,1.88,5.73,4.29,11.31,5.87,17.11,1.31,4.8,3.62,7.69,8.83,7.89,1.79,.07,3.57,1.09,5.32,.99,4.04-.23,8.05-.87,12.26-1.37Zm-44.37,0c-5.65,.19-10.51,1.38-15.26,3.05-.76,.27-1.36,1.05-1.96,1.66-5.58,5.69-9.23,12.46-11.18,20.16-3.56,14.07-1.8,27.86,2.39,41.49,.21,.7,.54,1.49,1.07,1.93,2.96,2.47,6,4.85,9.47,7.63-.11-1.17-.13-1.59-.2-2-2.27-12.95-3.15-25.95-1.02-39.01,2.06-12.61,6.41-24.18,15.56-33.51,.28-.28,.5-.61,1.12-1.39Zm82.58,52.08c0-.54,.03-1.08,0-1.62-.48-8.94-7.75-16.02-16.37-15.94-7.97,.07-14.56,6.03-15.77,14.77-.94,6.8,1.3,12.64,6.89,16.79,5.03,3.73,10.62,4.18,16.16,1.27,6.05-3.18,8.71-8.6,9.1-15.27Zm-.09,5.42c.3,1.69,.39,3.45,.93,5.07,1.91,5.68,5.55,9.67,11.58,11.1,5.61,1.33,10.21-.6,14.05-4.59,2.55-2.64,3.85-5.9,4.34-9.55,1.27-9.4-5.54-18.16-14.59-18.65-8.72-.48-16.27,7.29-16.32,16.62Zm-28.72,29.02c-25.93-17.93-23.04-56.57,5.13-69.92-3.32-2.14-6.45-4.15-9.59-6.17-6.47,5.7-10.62,12.56-13.5,20.23-6.44,17.18-6.83,35-5.42,52.99,.16,2.01,.47,4.01,.73,6.11,7.79,.19,15.08-.84,22.67-3.24Zm-6.3-83.63c.53,3.59,1.54,6.21,4.83,7.72,2.42,1.11,4.6,2.78,6.76,4.38,1.54,1.14,2.78,1.2,4.18-.2-3.85-5.77-8.81-9.83-15.77-11.89Zm-30.21,2.57c-2.1-.07-3.91,1.48-3.99,3.39-.07,1.93,1.61,3.6,3.71,3.7,2.09,.09,3.87-1.44,3.95-3.4,.08-1.98-1.56-3.62-3.67-3.69Zm122.06,26.52c-2.09,.01-3.87,1.66-3.83,3.55,.04,1.89,1.87,3.57,3.88,3.57,2.05,0,3.75-1.66,3.74-3.62-.01-2.05-1.59-3.51-3.8-3.49Zm-70.13,53.27c-2.71-.56-5.04-.72-7.12-1.55-2.04-.82-4.05-2.06-5.63-3.58-1.55-1.5-2.54-3.58-4.14-5.94,.54,7.39,10.72,14.02,16.88,11.07Zm-41.24-83c-2.06-.47-3.97-.78-5.8-1.34-2.9-.89-4.63,.43-5.94,2.6,4.05,2.09,7.86,1.6,11.74-1.25Zm7.39-.22c-.05,.25-.1,.51-.15,.76,3.8,1.49,7.61,2.98,11.55,4.53-1.44-6.27-1.1-4.93-6.24-5.27-1.71-.11-3.44-.02-5.16-.02Z"/><path class="cls-3" d="M67.22,66.48c-4.22-.15-8.21-.53-12.17-.38-4.63,.17-9.25,.72-13.85,1.29-1.59,.2-2.52,0-3.39-1.48-7.07-11.98-11.8-24.71-12.65-38.7-.34-5.65,.07-11.3,2.41-16.52,1.16-2.6,2.89-5.07,4.82-7.16,2.22-2.4,5.12-2.52,7.52-.25,2.4,2.27,4.8,4.83,6.25,7.73,3.16,6.35,5.98,12.91,8.46,19.56,4.03,10.8,7.68,21.75,11.49,32.64,.38,1.08,.74,2.17,1.11,3.27Z"/><path class="cls-1" d="M60.11,77.61c1.92,3.77,4.02,5.05,7.01,4.33,3.09-.74,4.18-2.68,3.96-7.34,3.23-1.31,6.28-3.43,10.78-3.11-20.89,25.12-22.73,53.94-17.98,84.41-1.42-.29-2.54-.52-3.8-.78-.18-3.83,1.22-7.62,.19-11.36-.25-.03-.5-.05-.74-.08-.36,3.52-.72,7.04-1.13,11.05-3.12-1.03-6.06-1.92-8.94-3.01-.52-.2-1.05-1.11-1.1-1.73-1.66-21.39-1.19-42.56,6.82-62.89,.99-2.5,2.3-4.88,3.52-7.28,.38-.76,.92-1.43,1.43-2.21Z"/><path class="cls-3" d="M93.07,67.94c-4.21,.5-8.22,1.14-12.26,1.37-1.75,.1-3.54-.93-5.32-.99-5.21-.2-7.52-3.09-8.83-7.89-1.58-5.81-3.99-11.38-5.87-17.11-2.24-6.83-1.67-13.69,.62-20.35,2.17-6.32,7.22-7.61,11.97-2.82,2.82,2.84,5.52,6.3,6.9,10,4.57,12.2,8.53,24.63,12.71,36.97,.12,.36,.08,.79,.08,.83Z"/><path class="cls-1" d="M48.69,67.95c-.62,.77-.85,1.11-1.12,1.39-9.15,9.33-13.5,20.9-15.56,33.51-2.13,13.06-1.25,26.06,1.02,39.01,.07,.41,.09,.84,.2,2-3.47-2.78-6.51-5.15-9.47-7.63-.53-.44-.86-1.24-1.07-1.93-4.19-13.63-5.95-27.42-2.39-41.49,1.95-7.69,5.6-14.47,11.18-20.16,.6-.61,1.2-1.39,1.96-1.66,4.75-1.67,9.61-2.86,15.26-3.05Z"/><path class="cls-3" d="M131.28,120.03c-.39,6.66-3.05,12.09-9.1,15.27-5.54,2.91-11.13,2.47-16.16-1.27-5.59-4.15-7.83-9.99-6.89-16.79,1.21-8.74,7.8-14.7,15.77-14.77,8.62-.08,15.89,7,16.37,15.94,.03,.54,0,1.08,0,1.62Zm-17.53,1.52c2.69,1.08,4.65,.61,5.77-1.56,1.02-1.96,.27-4.55-1.63-5.65-2.09-1.2-3.93-.65-5.21,1.17,1,.87,2.54,1.58,2.69,2.5,.16,1.02-.97,2.24-1.61,3.54Z"/><path class="cls-3" d="M131.19,125.45c.04-9.33,7.6-17.1,16.32-16.62,9.05,.5,15.86,9.25,14.59,18.65-.49,3.65-1.79,6.91-4.34,9.55-3.85,3.99-8.44,5.92-14.05,4.59-6.03-1.43-9.67-5.42-11.58-11.1-.54-1.61-.64-3.37-.93-5.07Zm11.55,2.23c3.1,1.78,5.05,1.62,6.55-.31,1.31-1.68,1.15-4.06-.36-5.57-1.59-1.58-3.63-1.52-5.79,.17,3.14,2.02,2.55,4.46-.41,5.71Z"/><path class="cls-1" d="M102.46,154.47c-7.58,2.4-14.87,3.43-22.67,3.24-.25-2.1-.57-4.1-.73-6.11-1.4-17.99-1.02-35.81,5.42-52.99,2.88-7.68,7.03-14.53,13.5-20.23,3.14,2.02,6.27,4.04,9.59,6.17-28.17,13.35-31.06,52-5.13,69.92Z"/><path class="cls-1" d="M65.96,73.41c2.11,.07,3.74,1.71,3.67,3.69-.07,1.96-1.86,3.49-3.95,3.4-2.1-.09-3.78-1.77-3.71-3.7,.07-1.92,1.88-3.46,3.99-3.39Z"/><path class="cls-1" d="M188.01,99.92c2.2-.01,3.79,1.44,3.8,3.49,0,1.96-1.7,3.61-3.74,3.62-2.02,0-3.85-1.68-3.88-3.57-.04-1.89,1.74-3.53,3.83-3.55Z"/><path class="cls-3" d="M117.88,153.19c-6.16,2.95-16.35-3.68-16.88-11.07,1.6,2.36,2.59,4.44,4.14,5.94,1.58,1.52,3.59,2.76,5.63,3.58,2.07,.83,4.41,1,7.12,1.55Z"/><path class="cls-1" d="M76.64,70.19c-3.89,2.86-7.69,3.34-11.74,1.25,1.31-2.16,3.04-3.49,5.94-2.6,1.83,.56,3.74,.88,5.8,1.34Z"/><path class="cls-3" d="M84.03,69.97c1.72,0,3.45-.1,5.16,.02,5.14,.34,4.8-1,6.24,5.27-3.94-1.54-7.75-3.04-11.55-4.53,.05-.25,.1-.51,.15-.76Z"/><path class="cls-2" d="M113.75,121.55c.65-1.3,1.77-2.52,1.61-3.54-.14-.92-1.68-1.63-2.69-2.5,1.29-1.82,3.13-2.37,5.21-1.17,1.9,1.1,2.65,3.69,1.63,5.65-1.12,2.17-3.09,2.64-5.77,1.56Z"/><path class="cls-2" d="M142.74,127.68c2.96-1.25,3.55-3.69,.41-5.71,2.15-1.69,4.2-1.75,5.79-.17,1.51,1.51,1.67,3.88,.36,5.57-1.5,1.93-3.46,2.09-6.55,.31Z"/></g></g></svg>