<?xml version="1.0" encoding="iso-8859-1"?>
<!-- Generator: Adobe Illustrator 19.0.0, SVG Export Plug-In . SVG Version: 6.00 Build 0)  -->
<svg version="1.1" id="Capa_1" xmlns="http://www.w3.org/2000/svg" xmlns:xlink="http://www.w3.org/1999/xlink" x="0px" y="0px"
	 viewBox="0 0 512 512" style="enable-background:new 0 0 512 512;" xml:space="preserve">
<path style="fill:#CC7400;" d="M435.449,164.284V393.88c0,64.971-53.149,118.12-118.12,118.12H194.671
	c-64.971,0-118.12-53.149-118.12-118.12V164.284c0-64.971,53.149-118.12,118.12-118.12h122.659
	C382.3,46.165,435.449,99.313,435.449,164.284z"/>
<path style="fill:#EE8700;" d="M435.449,164.284V393.88c0,64.966-53.154,118.12-118.12,118.12h-81.394
	c-64.966,0-118.12-53.154-118.12-118.12V164.284c0-0.098,0-0.197,0-0.295c0.035-14.098,11.654-25.433,25.752-25.433h289.023
	C434.469,146.84,435.449,155.454,435.449,164.284z"/>
<g>
	<path style="fill:#FFCD00;" d="M295.328,318.907l-14.794-25.625c-2.149-3.722-6.121-6.015-10.419-6.015h-29.589
		c-4.298,0-8.269,2.293-10.419,6.015l-14.794,25.625c-2.149,3.722-2.149,8.309,0,12.031l14.794,25.625
		c2.149,3.722,6.121,6.015,10.419,6.015h29.589c4.298,0,8.269-2.293,10.419-6.015l14.794-25.625
		C297.477,327.215,297.477,322.63,295.328,318.907z"/>
	<path style="fill:#FFCD00;" d="M208.876,368.908l-14.794-25.625c-2.149-3.722-6.121-6.015-10.419-6.015h-29.589
		c-4.298,0-8.269,2.293-10.419,6.015l-14.794,25.625c-2.149,3.722-2.149,8.309,0,12.031l14.794,25.625
		c2.149,3.722,6.121,6.015,10.419,6.015h29.589c4.298,0,8.269-2.293,10.419-6.015l14.794-25.625
		C211.025,377.216,211.025,372.63,208.876,368.908z"/>
	<path style="fill:#FFCD00;" d="M295.328,419.847l-14.794-25.625c-2.149-3.722-6.121-6.015-10.419-6.015h-29.589
		c-4.298,0-8.269,2.293-10.419,6.015l-14.794,25.625c-2.149,3.722-2.149,8.309,0,12.031l14.794,25.625
		c2.149,3.722,6.121,6.015,10.419,6.015h29.589c4.298,0,8.269-2.293,10.419-6.015l14.794-25.625
		C297.477,428.155,297.477,423.569,295.328,419.847z"/>
</g>
<path style="fill:#FF9811;" d="M440.483,44.824v19.766c0,24.645-20.168,44.824-44.824,44.824H116.34
	c-24.656,0-44.824-20.178-44.824-44.824V44.824C71.517,20.168,91.685,0,116.34,0h279.32C420.315,0,440.483,20.168,440.483,44.824z"
	/>
<path style="fill:#FFA733;" d="M440.483,44.824v19.766c0,24.645-20.168,44.824-44.824,44.824H157.605
	c-24.656,0-44.824-20.178-44.824-44.824V44.824C112.781,20.168,132.949,0,157.605,0H395.66C420.315,0,440.483,20.168,440.483,44.824
	z"/>
<path style="fill:#EEBF00;" d="M390.172,0v318.057c0,18.229-14.773,33.012-33.012,33.012c-18.229,0-33.012-14.783-33.012-33.012
	V162.51c-4.013,13.772-16.836,23.841-32.042,23.841c-18.414,0-33.352-14.773-33.352-33.012v68.778
	c0,18.229-14.938,33.012-33.362,33.012c-18.414,0-33.352-14.783-33.352-33.012V0H390.172z"/>
<path style="fill:#FFD422;" d="M390.172,0v282.982c0,18.229-14.773,33.012-33.012,33.012c-18.229,0-33.012-14.783-33.012-33.012
	V127.435c-4.013,13.772-16.836,23.841-32.042,23.841c-18.414,0-33.352-14.773-33.352-33.012v68.778
	c0,18.229-14.938,33.012-33.362,33.012c-18.414,0-33.352-14.783-33.352-33.012V0H390.172z"/>
<g>
</g>
<g>
</g>
<g>
</g>
<g>
</g>
<g>
</g>
<g>
</g>
<g>
</g>
<g>
</g>
<g>
</g>
<g>
</g>
<g>
</g>
<g>
</g>
<g>
</g>
<g>
</g>
<g>
</g>
</svg>
