<?xml version="1.0" encoding="UTF-8"?><svg id="Layer_1" xmlns="http://www.w3.org/2000/svg" viewBox="0 0 167.6 159.6"><defs><style>.cls-1{fill:#dcaf54;}.cls-2{fill:#141208;}.cls-3{fill:#a08022;}.cls-4{fill:#f3f3f4;}.cls-5{fill:#f7c735;}</style></defs><path class="cls-2" d="M41.23,159.6c-.1-5.33,1.56-9.38,3.43-13.37,.46-.98,.93-1.78,.32-3.05-8.2-16.98-5.56-32.88,4.96-47.95,.36-.52,1.03-.9,.75-1.98-8.14,2.11-16.44,2.76-24.84,2.21-3.98-.26-7.83-1.04-11.54-2.53-7.98-3.2-11.99-9.66-11.43-18.48,.42-6.6,5.65-12.12,13.35-14.13,5.31-1.39,10.69-1.3,16.19-.55-.16-1.39-1.32-1.49-2.03-1.95-9.35-6.08-18.62-12.24-25.66-21.13-.68-.86-1.32-1.77-1.9-2.7C-2.23,25.79-.49,18.26,7.9,13.55c8.78-4.94,18.28-6.9,28.33-5.55,1.92,.26,3-.01,4.15-1.89C43.18,1.55,47.95,.27,52.93,.06c23.38-1.02,38.97,11.14,45.42,35.31,2.72,10.2,3.5,20.6,3.36,31.12-.01,.91-.92,2.54,.75,2.69,1.33,.12,3.04,.18,3.63-1.91,.38-1.33,1.04-2.93,2.1-3.67,4.07-2.86,3.86-6.69,3.47-10.99-.51-5.6-.29-11.24,1.24-16.74,2.44-8.78,7.37-14.82,16.98-16.18,2.65-.37,5.05-2.17,7.96-1.19,1.75,.59,3.44,1.23,3.59,3.34,.16,2.36-1.67,3.27-3.49,3.77-2.41,.67-5,.65-6.86-1.18-1.32-1.31-2.34-1.09-3.8-.63-6.4,2.03-9.38,6.91-11.01,12.95-1.63,6.05-1.55,12.21-1.06,18.39,.13,1.62,.62,2.31,2.19,1.22,.09-.06,.2-.1,.31-.12,5.92-1.25,8.54-4.51,9.57-10.9,1.45-9.01,7.22-15.06,17.01-16.37,2.55-.34,4.91-1.89,7.67-1.14,1.96,.53,3.71,1.49,3.72,3.61,.02,1.97-1.67,3.03-3.48,3.47-2.55,.62-5.15,.61-7.17-1.29-1.09-1.02-1.92-.95-3.2-.61-6.85,1.86-9.74,7.15-11.48,13.31-1.65,5.86-1.53,5.79,4.36,6.15,2.64,.16,5.1,.05,7.73-.62,8.85-2.22,17.39,3.97,18.21,12.99,.14,1.54,.8,2.69,1.56,3.89,4.79,7.61,6.7,15.82,4.5,24.63-2.31,9.26-8.4,15.15-17.86,15.4-10.25,.28-17.96,5.23-25.65,10.81-8.59,6.23-15.76,14.14-24.23,20.52-8.77,6.61-17.99,12.28-29.19,13.84-6.01,.84-11.68-.08-16.9-3.05-1.91-1.09-3.09-.82-4.63,.44-2.65,2.18-4.61,4.92-7.01,8.26ZM111.39,79.02c1.53,4.3,4.17,7.83,7.51,10.87,1.19,1.34,2.43,2.62,4,3.52,5.63,4.98,12.15,8.31,19.49,9.7,5.89,1.12,11.53,.49,16.07-5.19-7.49,1.44-14.06,.98-19.69-3.87l-.07,.06c1.13-.43,2.14,.14,3.19,.37,5.68,1.27,11.26,1.01,16.85-.68,2.01-.61,2.95-1.74,3.11-3.66,.51-6.02-.19-11.79-3.67-16.96-4.51-9.62-17.56-17.24-27.52-14.53,9.97,4.38,13.46,14.03,8.17,22.62-3.61,5.85-9.94,7.91-18.31,5.95-3.79-2.04-6.93-4.7-8.39-8.93-1.09-2.89-.41-5.93-.96-8.89-.08,3.21-1.76,6.4,.2,9.62Zm-57.45,61.46c-3.1-4.77-6.28-9.49-7.79-15.1-.12,7.08,1.9,13.3,5.58,17.81,2.55,2.82,5.78,4.27,9.21,4.86-2.3-2.49-4.66-5.03-7.01-7.58Zm9.19-11.24c4.26,6.17,9.81,10.88,16.41,14.37,1.03,.55,2.06,1.11,3.38,.32,2.48-1.49,5.17-2.65,7.54-4.76-3.69-2.4-7-4.9-10.06-7.73-3.15-2.91-5.75-6.32-8.57-9.53-6.38-10.09-7.43-21.3-6.46-33.18-2.69,1.07-4.03,2.5-4.63,4.85-1.41,5.56-2.48,11.19-2.55,16.92-.08,6.65,.63,13.2,4.93,18.75Zm52.48-34.55c-5.02-5.44-9.66-11.1-10.69-18.8-.08-.6-.36-1.09-1-1.07-.84,.03-.96,.73-1.07,1.4-1.29,7.85-1.87,15.65,1.3,23.25,2.65,6.85,7.92,11.49,13.45,15.92,.58,.46,1.18,.63,1.79,.14,4.35-3.45,9.15-6.24,14.32-9.22-7.08-2.86-12.77-6.96-18.09-11.62Zm-24.31,10.26c-2.35-6.84-3.26-13.88-2.98-21.11,.24-6.38,.17-6.36-5.84-3.92-1.21,.49-1.87,1.11-2.18,2.52-1.12,5.19-1.94,10.41-1.67,15.71,.26,5.06,.89,10.09,3.9,14.44,3.99,6.67,9.72,11.44,16.27,15.47,2.86,1.76,4.8,1.53,7.03-.91,1.37-1.5,1.8-2.17-.04-3.71-6.09-5.13-11.21-11.1-14.49-18.48ZM27.94,13.11c-4.22-.03-10.79,1.6-16.88,4.91-6.11,3.33-7.13,7.53-3.39,13.34,3.39,5.27,8.15,9.24,13.07,12.96,16.15,12.2,33.97,21.5,52.14,30.24,2.9,1.4,5.29,1.27,8.04,.11,1.41-.6,1.72-1.25,1.3-2.71-4.42-15.2-10.27-29.73-20.37-42.14-8.01-9.84-17.79-16.71-33.91-16.71ZM96.19,59.36c-.38-4.16-.66-8.78-1.26-13.37-.6-4.58-1.78-9.05-3.18-13.47-5.72-18.02-19.73-28.08-37.92-27.1-2.99,.16-5.93,.66-8.25,2.83-.97,.9-1.32,1.72,.36,2.39,1.73,.7,3.4,1.55,5.02,2.48,12.43,7.22,20.14,18.49,26.48,30.92,4.21,8.25,7.43,16.88,9.87,25.82,.25,.93-.05,2.55,2.02,2.28,6.47-.83,6.84-1.17,6.87-7.69,0-1.54,0-3.09,0-5.09Zm-27.2,20.48c-11.36-6.47-22.58-11.92-35.07-14.22-6.55-1.21-13.15-1.68-19.44,1.27-5.38,2.52-7.28,7.07-5.73,12.81,1.45,5.37,5.41,7.98,10.34,9.06,17.64,3.84,33.94-.16,49.91-8.91Zm67.83-10.93c-.05-4.25-3.27-7.43-7.57-7.46-4.15-.03-7.57,3.32-7.64,7.47-.07,4.12,3.69,7.83,7.83,7.74,4.15-.09,7.43-3.53,7.39-7.75Zm19.65-7.32c-1.62-5.66-4.91-7.67-9.51-6.24,3.39,1.53,6.3,3.6,9.51,6.24Z"/><path class="cls-4" d="M27.94,13.11c16.12,0,25.89,6.86,33.91,16.71,10.1,12.41,15.95,26.94,20.37,42.14,.43,1.46,.11,2.11-1.3,2.71-2.74,1.17-5.14,1.29-8.04-.11-18.17-8.74-35.99-18.04-52.14-30.24-4.93-3.72-9.68-7.69-13.07-12.96-3.74-5.82-2.73-10.02,3.39-13.34,6.09-3.31,12.66-4.95,16.88-4.91Z"/><path class="cls-4" d="M96.19,59.36c0,2.01,0,3.55,0,5.09-.03,6.52-.4,6.85-6.87,7.69-2.07,.27-1.77-1.36-2.02-2.28-2.44-8.94-5.66-17.57-9.87-25.82-6.34-12.43-14.05-23.7-26.48-30.92-1.61-.94-3.29-1.79-5.02-2.48-1.67-.67-1.32-1.49-.36-2.39,2.32-2.17,5.25-2.66,8.25-2.83,18.19-.98,32.2,9.08,37.92,27.1,1.4,4.42,2.58,8.89,3.18,13.47,.6,4.58,.88,9.21,1.26,13.37Z"/><path class="cls-4" d="M68.99,79.83c-15.97,8.75-32.27,12.75-49.91,8.91-4.93-1.07-8.89-3.68-10.34-9.06-1.55-5.73,.35-10.29,5.73-12.81,6.29-2.94,12.89-2.47,19.44-1.27,12.49,2.3,23.72,7.75,35.07,14.22Z"/><path class="cls-5" d="M120.53,87.23c8.38,1.95,14.71-.1,18.31-5.95,5.29-8.58,1.81-18.24-8.17-22.62,9.95-2.71,23.01,4.92,27.52,14.54-1.59,8.45-8.2,11.86-15.07,14.96-6.43,2.9-13.46,3.57-20.21,5.27-1.57-.91-2.81-2.19-4-3.52,.16-1.13,.55-2.1,1.63-2.67Z"/><path class="cls-1" d="M122.9,93.42c6.75-1.7,13.78-2.36,20.21-5.27,6.87-3.1,13.49-6.51,15.07-14.96,3.48,5.16,4.18,10.94,3.68,16.96-.16,1.92-1.1,3.06-3.11,3.66-5.59,1.69-11.17,1.95-16.85,.68-1.05-.23-2.06-.8-3.19-.37,.17-.53-.08-.5-.44-.33,.17,.09,.34,.18,.5,.28,5.62,4.85,12.2,5.31,19.69,3.87-4.54,5.67-10.18,6.3-16.07,5.19-7.34-1.39-13.87-4.72-19.49-9.7Z"/><path class="cls-5" d="M82.53,112.59c-3.01-4.35-3.64-9.38-3.9-14.44-.27-5.3,.55-10.52,1.67-15.71,.31-1.42,.96-2.03,2.18-2.52,6.01-2.44,6.08-2.46,5.84,3.92-.28,7.23,.63,14.27,2.98,21.11-1.55,4.12-5.78,5.17-8.77,7.64Z"/><path class="cls-1" d="M115.61,94.69c5.32,4.66,11.01,8.76,18.09,11.62-5.17,2.98-9.97,5.77-14.32,9.22-.61,.48-1.21,.32-1.79-.14-5.53-4.42-10.79-9.07-13.45-15.92,4.43-.13,7.97-2.42,11.47-4.77Z"/><path class="cls-5" d="M63.13,129.24c-4.3-5.55-5.01-12.1-4.93-18.75,.07-5.73,1.14-11.35,2.55-16.92,.6-2.35,1.93-3.78,4.63-4.85-.97,11.88,.08,23.09,6.46,33.18-2.91,2.44-5.26,5.53-8.7,7.33Z"/><path class="cls-1" d="M63.13,129.24c3.44-1.8,5.8-4.9,8.7-7.33,2.81,3.21,5.41,6.62,8.57,9.53,3.06,2.83,6.38,5.32,10.06,7.73-2.37,2.11-5.05,3.27-7.54,4.76-1.32,.79-2.35,.23-3.38-.32-6.6-3.49-12.15-8.2-16.41-14.37Z"/><path class="cls-1" d="M82.53,112.59c2.99-2.47,7.22-3.52,8.77-7.64,3.28,7.37,8.4,13.35,14.49,18.48,1.84,1.55,1.41,2.21,.04,3.71-2.22,2.45-4.17,2.67-7.03,.91-6.55-4.03-12.28-8.8-16.27-15.47Z"/><path class="cls-4" d="M136.82,68.9c.05,4.21-3.23,7.66-7.39,7.75-4.14,.09-7.89-3.62-7.83-7.74,.07-4.15,3.49-7.5,7.64-7.47,4.3,.03,7.52,3.21,7.57,7.46Z"/><path class="cls-5" d="M115.61,94.69c-3.51,2.35-7.04,4.65-11.47,4.77-3.17-7.6-2.59-15.4-1.3-23.25,.11-.67,.23-1.37,1.07-1.4,.64-.02,.92,.47,1,1.07,1.04,7.7,5.67,13.37,10.69,18.8Z"/><path class="cls-5" d="M51.75,143.19c-3.68-4.51-5.71-10.74-5.58-17.81,1.5,5.61,4.69,10.33,7.79,15.1-1.31,.43-.25,2.8-2.2,2.71Z"/><path class="cls-1" d="M51.75,143.19c1.96,.09,.89-2.28,2.2-2.71,2.36,2.55,4.71,5.09,7.01,7.58-3.44-.59-6.66-2.05-9.21-4.86Z"/><path class="cls-1" d="M120.53,87.23c-1.08,.56-1.47,1.54-1.63,2.67-3.34-3.05-5.98-6.57-7.51-10.87,.25-.24,.5-.48,.75-.73,1.45,4.24,4.6,6.89,8.39,8.93Z"/><path class="cls-3" d="M112.15,78.29c-.25,.24-.5,.48-.75,.73-1.97-3.21-.28-6.41-.2-9.62,.55,2.96-.13,6,.96,8.89Z"/><path class="cls-2" d="M138.79,94.07c-.17-.09-.34-.18-.5-.28,.36-.17,.61-.2,.44,.33,0,0,.07-.06,.07-.06Z"/></svg>