<?xml version="1.0" encoding="UTF-8"?><svg id="Layer_1" xmlns="http://www.w3.org/2000/svg" viewBox="0 0 421.04 293.57"><defs><style>.cls-1{fill:#fff;}.cls-2{fill:#082f54;}.cls-3{fill:#870d09;}.cls-4{fill:#092440;}.cls-5{fill:#023362;}.cls-6{fill:#f2c697;}</style></defs><path class="cls-4" d="M223.52,256.14c6.99-6.45,14.83-7.52,24.26-6.06,51.24,7.97,102.69,14.43,154.39,18.63,4.7,.38,9.42,.54,14.13,.69,1.61,.05,3.75,.73,4.53-1.25,.88-2.23-1.21-3.51-2.63-4.52-5.02-3.58-10.78-5.37-16.87-5.9-10.52-.93-21.05-1.77-31.59-2.49-3.82-.26-7.04-.73-8.07-5.35-.61-2.75-3.42-3.13-5.78-3.72-.25,1.36,.48,2.16,1.63,2.6,2.5,.95,3.85,2.88,2.8,5.25-1.02,2.32-3.33,.85-5.07,.52-2.22-.42-4.37-1.33-6.59-1.52-3.2-.27-5.85-4.22-9.47-1.39,1.01,2.5-.07,3.5-2.52,3.47-7.7-.11-15.23-1.34-23.38-3.22,3.46-2.38,7.2-1.17,9.81-3.37-.01-1.81-1.41-1.2-2.34-1.29-4.26-.42-8.53-.7-12.76-1.25-1.1-.14-3.01-.05-2.99-1.82,.02-1.52,1.69-1.92,2.87-2.24,2.69-.73,5.44-1.19,8.17-1.77-1.99-1.67-.06-3.43-.1-5.14-5.34,2.47-10.87,2.38-16.42,1.03-1.18-.29-2.69-.91-2.48-2.57,.15-1.22,1.29-1.73,2.43-1.98,3.08-.67,6.15-1.34,9.23-2.01-2.2-.83-.64-4.09-3.07-4.78-2.52,1.38-5.25,2.17-8.06,2.5-1.98,.23-4.8,.93-5.48-1.38-.54-1.84,2.17-2.72,3.67-3.79-1.55-3.14-4.21-4.47-7.54-5.29-5.58-1.37-6.48-4.42-3.06-8.96,.66-.88,2.44-1.5,1.08-3.14q-5.56,5.11-7.19,1.4c-.5,.25-.98,.63-1.51,.73-1.93,.38-4.75,1.85-5.57-.23-1.05-2.63,2.5-2.61,4.01-3.54,2.34-1.44,5.01-2.56,7.96-2.07,.71-.55,2.05-1.15,2.01-1.64-.11-1.36-1.29-1.37-2.51-1.19-2.26,.34-4.28,2.46-6.79,.92-3.72,3.03-7.42,6.14-13.47,4.54,2.4-3.38,6.06-3.86,8.49-6-.84-1.21-1.98-1.41-3.3-.99-2.06,1.21-4.02,2.63-6.19,3.58-3.55,1.56-5.96,.92-5.55-3.69-2.02,1.42-4.13,1.67-6.15,.13-.4-.3-.49-1.36-.34-1.97,.53-2.19,8.14-7.16,10.41-6.69,3.1,.64,3.42,2.42,1.53,4.79,1.76,3.21,3.83-1.08,5.66,.23-1.21-2.08-2.2-4.34-3.71-6.16-.93-1.12-1.64-2.24-1.28-3.45,.44-1.48,1.87-.56,2.92-.6,2.41-.08,4.59-.6,4.84-3.59,.29-3.5,4.11-4.17,5.46-6.86,.45-.89,1.67-.97,2.41-.11,.76,.87,.45,1.85-.49,2.37-6.32,3.46-.65,4.91,1.14,7.02,1.08-9.67,8.39-15.23,14.37-21.64,3.6-3.86,7.38-7.56,10.97-11.44,1.9-2.06,3.56-4.36,2.05-7.84-4.46,2.7-7.93,6.07-11.5,9.34-16.13,14.77-31.25,30.68-48.83,43.81-4.66,3.49-9.51,6.8-14.57,9.66-12.03,6.79-18.82,7.38-33.15,3.54,.9-1.2,1.75-2.34,2.59-3.48-4.07-1.47-8,4.99-12.13,.21-.51,.5-1.45,1-1.45,1.5-.04,4.62-2.64,4.83-6.51,4.89-3.09,.05-6.04,3.01-9.44,.7-.13,.05-.26,.13-.4,.14-.08,0-.17-.09-.26-.14,.22,0,.44,0,.66,0,3.05-5.89,9.17-8.69,13.5-13.35,8.68-9.33,9.28-19.59,.56-28.63-2.76-2.86-2.61-4.83,.08-7.57,1.74-1.77,4.59-2.51,4.96-5.74,.83-7.14,4.19-14.19-.2-21.35-1.68-2.74-.28-4.86,2.14-6.72,7.21-5.53,14.05-11.57,21.52-16.72,4.82-3.32,8.19-8,12.56-11.73,3.55-3.03,10.31-5.06,8.49-12.24,1.27,.6,2.01-3.9,3.95-.12,1.55,3.03,5.91,2.49,7.03-.74,2.66-7.73,7.47-13.47,14.64-17.27,10.29-5.45,16.15-15.76,25.23-22.84,11.15-8.69,23.14-16.89,32.2-28.15,3.59-4.46,8.6-7.28,12.94-10.85,2.1-1.73,4.33-4.55,8-4.26-.53,3.02-1.7,5.23-3.32,7.43-1.29,1.75-3.47,4.32-1.16,6.4,2.41,2.17,3.19,5.02,4.69,7.57,1.43-3.14,3.1-6.24-1.58-8.32-1.82-.81-.21-1.73,.29-2.56,1.24-2.1,2.67-4.12,3.62-6.35,.79-1.86,1.62-4.21-.13-5.86-1.86-1.75-3.99-.43-5.7,.65-3.02,1.91-6,3.92-8.78,6.16-26.14,21.06-52.02,42.46-78.41,63.2-27.9,21.92-56.27,43.23-84.46,64.77-4.79,3.66-9.88,6.95-14.55,10.76-2.41,1.96-4.51,2.13-7.06,.83,2.43-6.67,1.03-8.99-7.62-12.63,5.68-4.49,5.55-8.07-.86-12.15-2.46-1.56-3.68-1.94-1.11-4.97,3.5-4.12-.21-6.93-3.49-8.84-3.35-1.94-7.35-3.04-1.88-7.22,1.86-1.42,.98-3.4-.18-5.05-1.37-1.96-3.47-3.1-5.59-3.67-4.31-1.17-5.29-2.55-2.34-6.61,2.5-3.44-.34-8.63-5.89-10.97-3.19-1.35-4.43-2.12-3.08-6.08,2.07-6.02-1.05-10.08-7.41-11.4-1.22-.25-2.66,.33-3.92-1.17,1.83-2.87,4.55-5.35,5.59-8.82,1.63-5.41-.81-8.16-6.31-6.86-2.66,.63-5.21,1.74-8.77,2.97,2.62-5.02,5.7-8.85,6.51-13.66,.35-2.05,.91-4.33-.96-5.8-1.89-1.49-4.03-.49-5.8,.58-3.36,2.02-6.6,4.22-10.37,6.67,.75-1.96,1.53-3.45,1.87-5.04,.51-2.39,3.11-5.29,.15-7.15-2.27-1.43-4.41,1.08-6.38,2.47-5.64,3.99-10.01,9.29-14.04,14.71-25.04,33.67-38.03,72.02-43.46,113.24,2.19-1.34,2.9-3.38,2.57-5.81-.33-2.42,.9-4.26,1.84-6.34,2.99-6.64,8.9-8.63,15.17-10.43,8.47-2.43,17.32-1.39,24.14,2.64,6.83,4.03,12.5,10.73,17.39,17.52,1.6,2.23,4.51,5.07,6.81,3.3,5.34-4.11,11.16-2.45,16.79-2.77,8.86-.5,16.65,1.22,22.63,9.08,3.01,3.96,2.97,5.98-.74,8.46-8.17,5.46-15.06,12.35-22.24,18.97-6.06,5.59-9.13,13.12-14.26,19.23-.99,1-2.04,1.04-3.15,.2-1.07,1.01-2.14,2.01-3.2,3.02,2.49,.58,4.95,1.32,7.47,1.66,1.18,.16,3.07-1.05,3.38,.62,.38,2.05-1.59,2.88-3.37,2.83-3.27-.08-5.85,1.49-6.62,4.26-.8,2.88-2.51,4.18-4.67,5.79-8.69,6.47-8.64,7.82-.12,15.09,.93,.79,1.82,1.53,1.09,2.77-3.32,5.64,4.02,8.72,3.3,13.76-.05,.32,1.12,1.18,1.73,1.19,4.97,.07,4.04,3.89,4.6,6.88,.47,2.55-1.56,5.77,2.01,7.55,1.25,.62,1.43,2,.54,2.83-1.11,1.04-2-.22-2.79-.96-1.51-1.41-1.6-3.92-3.66-4.89-1.77-.83-3.62-1.5-4.98,.65-1.3,2.06-.39,3.57,1.45,4.7,.87,.53,2.39-.27,2.82,1.49-1.87,2.76-4.06,5.36-7.61,6.09-2.32,.48-4.76,3.36-6.67,1.63-2.1-1.91,.76-4.4,1.44-6.56,2.83-9.06,2.95-9.02-4.63-10.35-.27,.22-.54,.45-.81,.68-1.05,1.04-2.12,1.1-3.2,.05-1.94-1.27-4.06-2.67-5.95-.27-3.09,3.93-6.69,3.43-10.58,1.74-2.9-1.26-5.47-1.25-7.34,1.75,7.19,2.79,14.39,4.03,21.73,.38,.75-.37,1.86-.15,2.78-.02,2.08,.3,4.92-.95,5.86,1.93,.85,2.6,.11,5.25-1.72,7.35-1.96,2.26-4.08,4.38-6.13,6.56,10.17-.53,20.11-2.18,29.68-5.78,3.41-3.34,4.07-7.4,3.42-11.96-1.42-10.04-5.19-19.27-9.68-28.24-1.14-2.29-1.99-4.2,.13-6.61,5.4-6.16,8.42-13.67,11.01-21.3,3.64-10.73,8.94-20.24,17.45-27.99,16.77-15.29,34.47-29.4,52.68-42.91,3.63-2.7,7.57-5.01,12.05-6.13,8.42-2.11,13.95,2.25,13.3,10.86-.56,7.55-3.84,14.14-8.55,19.96-1.86,2.29-3.66,3.85,.85,5.29,4.67,1.5,6.66,5.44,6.56,10.17-.18,9.11-3.7,16.6-11.22,22.08-4.59,3.34-9.02,6.89-13.84,10.59,3.85,1.93,7.61,2.77,10.95,1.93,8.35-2.1,15.92,.47,23.32,3.3,10.58,4.04,19.11,10.68,23.48,21.69,2.23,5.61,.45,11.52,1.68,17.17Z"/><path class="cls-6" d="M223.52,256.14c-1.22-5.66,.55-11.57-1.68-17.17-4.38-11.02-12.9-17.65-23.48-21.69-7.4-2.82-14.97-5.4-23.32-3.3-3.34,.84-7.1,0-10.95-1.93,4.82-3.7,9.25-7.24,13.84-10.59,7.52-5.48,11.04-12.97,11.22-22.08,.09-4.73-1.89-8.68-6.56-10.17-4.51-1.44-2.71-3-.85-5.29,4.72-5.82,7.99-12.41,8.55-19.96,.64-8.61-4.88-12.96-13.3-10.86-4.48,1.12-8.42,3.43-12.05,6.13-18.2,13.51-35.91,27.62-52.68,42.91-8.51,7.75-13.81,17.26-17.45,27.99-2.59,7.63-5.61,15.14-11.01,21.3-2.12,2.42-1.28,4.32-.13,6.61,4.49,8.97,8.25,18.2,9.68,28.24,.65,4.56,0,8.62-3.42,11.96,1.64,2.15,4.15,2.74,6.52,3,18.04,2,36.08,1.16,54.11-.34,3.32-.28,6.42-2.68,9.92-1.02,4.22-1.9,7.34-2.35,11.02-1.58,0,0-.06,0-.06,0,1.34-2.8,5.06-.88,6.44-3,5.29-8.13,13.01-5.7,20.38-5.02,7.85-4.25,16.21-7.56,23.6-12.69,.6-.42,1.11-.96,1.67-1.45Z"/><path class="cls-2" d="M339.25,23.95c-1.5-2.55-2.28-5.4-4.69-7.57-2.31-2.08-.13-4.65,1.16-6.4,1.62-2.2,2.79-4.41,3.32-7.43-3.67-.29-5.9,2.53-8,4.26-4.33,3.57-9.34,6.39-12.94,10.85-9.06,11.26-21.05,19.45-32.2,28.15-9.07,7.08-14.93,17.39-25.23,22.84-7.17,3.8-11.97,9.54-14.64,17.27-1.12,3.23-5.47,3.77-7.03,.74-1.94-3.78-2.68,.72-3.95,.12,1.82,7.18-4.94,9.22-8.49,12.24-4.37,3.73-7.74,8.4-12.56,11.73-7.47,5.15-14.31,11.2-21.52,16.72-2.42,1.85-3.82,3.97-2.14,6.72,4.39,7.16,1.03,14.21,.2,21.35-.38,3.23-3.23,3.98-4.96,5.74-2.69,2.74-2.84,4.71-.08,7.57,8.72,9.05,8.13,19.3-.56,28.63-4.33,4.65-10.44,7.46-13.5,13.35h0c3.4,2.32,6.36-.64,9.44-.69,3.86-.06,6.47-.27,6.51-4.89,0-.51,.95-1,1.45-1.5,4.13,4.78,8.06-1.68,12.13-.21,1.43-2.5,3.21-.86,4.88-.41,2.92,.78,6.81,.83,7.75-1.64,1.94-5.1,5.79-5.87,10.09-6.8,1.45-.31,2.83-1.45,3.26-2.93,.82-2.82,2.03-5.06,5.2-5.65,.33-.06,.9-.47,.87-.64-.96-6.95,8.32-9.67,6.92-16.66-.56-2.79,.99-2.94,2.94-3.51,7.2-2.11,8.84-4.75,7.27-12.08-.45-2.1-.89-3.06,1.87-3.68,6.37-1.42,12.97-3.03,11.41-12.13-.22-1.31,1.13-1.21,1.94-1.53,7.05-2.79,14.32-5.29,15.77-14.32,.25-1.55,2.11-1.14,3.25-1.57,8.27-3.15,16.55-6.24,16.31-17.4-.04-1.8,1.89-2.18,2.94-3.18,3.79-3.64,8.38-6.86,6.22-13.31-.7-2.11,1.46-2.41,2.51-3.18,5.19-3.8,10.43-7.58,14.34-12.73,2.82-3.7,5.32-7.77-.34-11.42-2.13-1.38-.14-2.16,.59-2.96,3.07-3.32,6.3-6.51,8.32-10.66,2.14-4.42,2.86-8.39-3.26-10.41,2.38-3.81,6.09-6.44,7.19-10.77Z"/><path class="cls-5" d="M87.24,203.62c5.13-6.11,8.2-13.64,14.26-19.23,7.18-6.63,14.08-13.52,22.24-18.97,3.7-2.47,3.75-4.5,.74-8.46-5.98-7.86-13.76-9.58-22.63-9.08-5.63,.32-11.45-1.34-16.79,2.77-2.3,1.77-5.21-1.07-6.81-3.3-4.89-6.79-10.56-13.49-17.39-17.52-6.83-4.03-15.68-5.08-24.14-2.64-6.27,1.8-12.19,3.79-15.17,10.43-.93,2.08-2.17,3.92-1.84,6.34,.33,2.43-.37,4.46-2.57,5.81,0,0,.04,.02,.04,.02,0,.58,0,1.16,0,1.75-3.57,13.42-3.03,26.12,6.32,37.36,4.01,4.83,9.68,7.03,15,9.81,4.92,2.58,9.43,5.59,11.52,11.12,1.13,2.99,.89,4.55-2.96,5.24-17.75,3.19-30.87,13.45-40.76,28.08-2.18,3.23-4.88,6.69-3.47,11.21,1.06-.37,2.12-.74,3.18-1.11,.54-.77,1.18-1.49,1.62-2.32,6.9-12.87,17.59-21.56,30.73-27.35,5.44-2.39,11.25-3.52,17.29-2.73,2.95,.38,5.33-.49,7.6-2.71,5.06-4.95,11.36-8.13,17.62-11.29,1.07-1.01,2.14-2.01,3.2-3.02,.98-1.24,2.03-1.2,3.15-.2Z"/><path class="cls-2" d="M276.68,199.02c2.5,1.54,4.53-.58,6.79-.92,1.22-.18,2.4-.17,2.51,1.19,.04,.49-1.3,1.09-2.01,1.64,.57,3.81-3.14,3.52-4.89,5.11q1.63,3.71,7.19-1.4c1.36,1.64-.41,2.26-1.08,3.14-3.41,4.53-2.52,7.58,3.06,8.96,3.33,.82,5.99,2.15,7.54,5.29,0,0,.07-.14,.07-.14,1.52-2.25,2.82-5.08,6.22-2.36,4.68-.69,6.2,.8,3.57,5.17,2.43,.69,.87,3.94,3.07,4.78,6.14-1.35,7.72-.14,7.24,5.53,.04,1.71-1.89,3.46,.1,5.14,3.79-1.11,7.07,.42,10.2,2.2,2.37,1.35,2.39,3.05,.04,4.61,.61,.67,1.22,1.34,1.83,2.01,3.56,1.41,7.66,.59,11.06,2.67,3.62-2.83,6.27,1.13,9.47,1.39,2.22,.18,4.37,1.1,6.59,1.52,1.73,.33,4.04,1.8,5.07-.52,1.05-2.37-.3-4.3-2.8-5.25-1.15-.44-1.88-1.24-1.63-2.6-2.33-.67-4.63-1.48-6.99-1.96-3.06-.61-7.01,.07-4.95-5.45,.75-2-1.4-3.4-3.14-4.09-2.78-1.1-5.68-1.89-8.53-2.8-1.54-.49-3.25-.15-1.25-2.93,2.29-3.19-1.09-4.27-3.59-5.31-2.35-.98-6.41-.21-5.45-4.97,.09-.44-.81-1.39-1.43-1.61-4.04-1.46-8.15-2.76-8.05-8.24-5.92-.68-8.64-4.47-11.38-9.49-1.07-1.96-6.48-1.82-6.33-6.5-5.47-.53-9.12-3.15-11.01-8.55-.46-1.32-4.74,1.91-4.84-2.33-.24-.08-.49-.16-.73-.24,.27-.03,.55-.05,.82-.08,0,0,.01-.03,.01-.03-1.8-2.1-7.46-3.56-1.14-7.02,.94-.51,1.25-1.5,.49-2.37-.75-.86-1.96-.78-2.41,.11-1.35,2.69-5.17,3.36-5.46,6.86-.25,2.99-2.43,3.51-4.84,3.59-1.04,.03-2.48-.88-2.92,.6-.36,1.21,.35,2.32,1.28,3.45,1.51,1.82,2.5,4.08,3.71,6.16,1.32,1.02,1.51,2.22,.62,3.62,1.32-.42,2.46-.22,3.3,.99l-.02-.02c.7-.85,1.42-1.59,2.56-.61l-.09,.02c.53-.45,1.07-1.27,1.59-1.26,.87,.02,.92,.89,.68,1.65,.09,.56,.18,1.11,.27,1.67Z"/><path class="cls-3" d="M6.03,253.24c-1.06,.37-2.12,.74-3.18,1.11-4.16,3.91-2.84,8.56-1.73,13.15,.84,3.49,2.34,6.71,4.34,9.69,5.77-.56,8.77,2.5,10.08,7.75,3.41,1.92,7.16,2.5,10.94,2.19,11.27-.93,22.52-2.07,33.78-3.13,2.05-2.18,4.18-4.3,6.13-6.56,1.83-2.11,2.57-4.76,1.72-7.35-.94-2.88-3.78-1.64-5.86-1.93-.92-.13-2.03-.35-2.78,.02-7.33,3.65-14.53,2.42-21.73-.38-.65,.02-1.29,.05-1.94,.07-5.31,.89-9.45,4.06-13.79,6.92-1.52,1-3.48,1.96-5.3,.65-1.9-1.36-1.18-3.38-.76-5.21,.73-3.22,2.18-6.03,4.81-8.13,3.46-2.76,3.21-5.22-.57-7.42-1.02,.53-1.9,.24-2.7-.48-.45-.06-.91-.12-1.36-.18-3.22-2.09-6.78,.29-10.08-.79Z"/><path class="cls-4" d="M198.26,270.28c-7.36-.68-15.09-3.12-20.38,5.02-1.38,2.12-5.1,.21-6.44,3,3.01-.04,5.52-1,7.22,3.67,1.51,4.17,6.75,6.39,11.63,7.09,2.6,.37,6.09,.43,6.5-2.61,.31-2.24,1.38-6.71-3.74-6.72-.18,0-.4-.06-.54-.17-1.62-1.34-5.27-.3-5.18-3.19,.09-3.24,3.42-2.04,5.43-2.51,2.29-.54,4.3-1.42,5.5-3.59Z"/><path class="cls-4" d="M171.5,278.29c-3.67-.77-6.8-.32-11.02,1.58,.08,7.67,3.02,11.29,10.73,13.21,5.5,1.37,8.03-.31,8.42-5.62,.14-1.85,.15-1.9-6.73-4.31-2.91-1.02-5.53-1.92-1.4-4.87Z"/><path class="cls-4" d="M15.53,284.95c-1.31-5.25-4.31-8.3-10.08-7.75-.31,5.52-3.92,10.16-4.55,16.37,5.33-2.9,9.41-6.78,14.63-8.62Z"/><path class="cls-4" d="M17.18,151.53c0-.58,0-1.16,0-1.75,0,.58,0,1.16,0,1.75Z"/><path class="cls-4" d="M279.06,181.61c-.27,.03-.55,.05-.82,.08,.24,.08,.49,.16,.73,.24,0,0,.09-.32,.09-.32Z"/><path class="cls-2" d="M6.03,253.24c3.3,1.08,6.86-1.3,10.08,.79,.45,.06,.91,.12,1.36,.18,.8,.72,1.68,1.01,2.7,.48,2.4-2.75,3.79-.3,5.4,1.05,2.01-2.45,4.49-4.41,6.25-7.19,3.53-5.58,9.1-8.4,15.32-10.23,2.85-.84,4.27,.06,6.07,2.33,3.66,4.63,2.69,10.34,4.4,15.38,.74,2.19,1.46,4.8,4.63,3.33,1.35-.63,2.46-1.05,3.55-.01,1.55,1.48,.98,3.04-.17,4.5,7.58,1.33,7.46,1.3,4.63,10.35-.68,2.16-3.54,4.65-1.44,6.56,1.91,1.74,4.35-1.15,6.67-1.63,3.54-.73,5.74-3.33,7.61-6.09-.43-1.76-1.94-.96-2.82-1.49-1.84-1.13-2.75-2.64-1.45-4.7,1.35-2.15,3.21-1.48,4.98-.65,2.07,.97,2.15,3.48,3.66,4.89,.79,.74,1.68,2,2.79,.96,.89-.83,.71-2.21-.54-2.83-3.57-1.78-1.53-5-2.01-7.55-.55-2.98,.37-6.81-4.6-6.88-.61,0-1.78-.86-1.73-1.19,.72-5.04-6.62-8.12-3.3-13.76,.73-1.24-.17-1.98-1.09-2.77-8.52-7.27-8.58-8.62,.12-15.09,2.16-1.61,3.88-2.91,4.67-5.79,.77-2.77,3.34-4.35,6.62-4.26,1.78,.05,3.75-.78,3.37-2.83-.31-1.67-2.19-.46-3.38-.62-2.52-.34-4.98-1.08-7.47-1.66-6.26,3.17-12.57,6.34-17.62,11.29-2.27,2.22-4.65,3.1-7.6,2.71-6.04-.79-11.86,.33-17.29,2.73-13.14,5.79-23.83,14.47-30.73,27.35-.44,.82-1.07,1.55-1.62,2.32Z"/><path class="cls-5" d="M65.6,263.85c1.15-1.46,1.72-3.02,.17-4.5-1.09-1.04-2.19-.61-3.55,.01-3.17,1.47-3.89-1.14-4.63-3.33-1.71-5.04-.74-10.75-4.4-15.38-1.79-2.27-3.21-3.17-6.07-2.33-6.22,1.83-11.79,4.65-15.32,10.23-1.76,2.77-4.24,4.73-6.25,7.19,.36,2.38,1.71,3.03,3.99,2.53,2.05-.45,3.23,1.21,2.46,2.57-2.62,4.65,1.52,5.25,3.77,7.04,.64-.02,1.29-.05,1.94-.07,1.87-3.01,4.44-3.01,7.34-1.75,3.89,1.69,7.5,2.19,10.58-1.74,1.89-2.41,4.01-1,5.95,.27,1.05-1.04,2.12-1.03,3.2-.04,.27-.23,.54-.46,.81-.68Z"/><path class="cls-1" d="M326.32,246.95c2.35-1.56,2.33-3.27-.04-4.61-3.13-1.78-6.41-3.31-10.2-2.2-2.73,.57-5.48,1.04-8.17,1.77-1.18,.32-2.85,.71-2.87,2.24-.02,1.78,1.88,1.68,2.99,1.82,4.24,.56,8.51,.83,12.76,1.25,.93,.09,2.33-.52,2.34,1.29,0,0-.11,.03-.11,.03,.28-1.91,1.29-1.68,2.5-.85l-.09,.02c.3-.25,.59-.51,.89-.76Z"/><path class="cls-1" d="M315.97,235c.48-5.68-1.1-6.88-7.24-5.53-3.08,.67-6.15,1.33-9.23,2.01-1.14,.25-2.28,.76-2.43,1.98-.21,1.66,1.3,2.29,2.48,2.57,5.55,1.35,11.08,1.45,16.42-1.03Z"/><path class="cls-1" d="M339.21,251.63c-3.4-2.08-7.5-1.26-11.06-2.67-1.16,.14-2.67,1.05-2.72-1.25,0,0,.09-.02,.09-.02-.17,2.24-1.27,1.75-2.5,.85,0,0,.11-.03,.11-.03-2.61,2.2-6.35,.99-9.81,3.37,8.15,1.88,15.68,3.11,23.38,3.22,2.45,.03,3.53-.97,2.52-3.47Z"/><path class="cls-1" d="M305.66,224.69c2.63-4.36,1.11-5.86-3.57-5.17-1.76,1.63-4.09,1.72-6.22,2.36,0,0-.07,.14-.07,.14-1.5,1.08-4.21,1.96-3.67,3.79,.68,2.3,3.51,1.61,5.48,1.38,2.81-.33,5.54-1.12,8.06-2.5Z"/><path class="cls-1" d="M262.11,192.73c1.89-2.37,1.57-4.15-1.53-4.79-2.27-.47-9.88,4.5-10.41,6.69-.15,.61-.06,1.67,.34,1.97,2.02,1.54,4.13,1.29,6.15-.13,1.82-1.24,3.63-2.49,5.45-3.73Z"/><path class="cls-6" d="M262.11,192.73c-1.82,1.24-3.64,2.49-5.45,3.73-.41,4.62,2,5.25,5.55,3.69,2.17-.95,4.14-2.37,6.19-3.58,.89-1.39,.7-2.6-.62-3.62-1.84-1.31-3.9,2.98-5.67-.23Z"/><path class="cls-1" d="M276.68,199.02c-.09-.56-.18-1.11-.27-1.67-.75-.13-1.51-.26-2.26-.4,0,0,.09-.02,.09-.02-.85,.2-1.71,.41-2.56,.61,0,0,.02,.02,.02,.02-2.43,2.14-6.09,2.62-8.49,6,6.05,1.6,9.75-1.51,13.47-4.54Z"/><path class="cls-1" d="M279.08,206.03c1.75-1.59,5.46-1.29,4.89-5.11-2.96-.49-5.62,.63-7.96,2.07-1.51,.93-5.06,.92-4.01,3.54,.83,2.08,3.64,.61,5.57,.23,.53-.11,1.01-.48,1.51-.73Z"/><path class="cls-2" d="M64.79,264.54c-1.08-.99-2.15-1-3.2,.04,1.08,1.06,2.15,.99,3.2-.04Z"/><path class="cls-2" d="M87.24,203.62c-1.12-.99-2.18-1.04-3.15,.2,1.11,.84,2.16,.8,3.15-.2Z"/><path class="cls-2" d="M171.47,210.82c-.22,0-.44,0-.66,0,.09,.05,.18,.15,.26,.14,.13-.01,.26-.09,.4-.14h0Z"/><path class="cls-4" d="M295.87,221.88c2.13-.64,4.47-.73,6.22-2.36-3.4-2.72-4.7,.1-6.22,2.36Z"/><path class="cls-4" d="M274.15,196.95c.75,.13,1.51,.26,2.26,.4,.25-.76,.2-1.63-.68-1.65-.52-.01-1.06,.81-1.59,1.26Z"/><path class="cls-4" d="M271.68,197.55c.85-.2,1.71-.41,2.56-.61-1.14-.97-1.86-.23-2.56,.61Z"/><path class="cls-4" d="M325.43,247.71c.04,2.29,1.55,1.39,2.72,1.25-.61-.67-1.22-1.34-1.83-2.01-.29,.25-.59,.51-.89,.76Z"/><path class="cls-4" d="M35.79,267.88c-2.25-1.79-6.39-2.39-3.77-7.04,.77-1.36-.41-3.02-2.46-2.57-2.29,.51-3.63-.15-3.99-2.53-1.61-1.34-3-3.8-5.4-1.05,3.78,2.2,4.03,4.65,.57,7.42-2.62,2.1-4.07,4.91-4.81,8.13-.42,1.83-1.14,3.84,.76,5.21,1.82,1.31,3.78,.35,5.3-.65,4.34-2.86,8.48-6.03,13.79-6.92Z"/><path class="cls-4" d="M17.47,254.21c-.46-.06-.91-.12-1.36-.18,.46,.06,.91,.12,1.36,.18Z"/><path class="cls-4" d="M323.02,248.54c1.24,.91,2.33,1.4,2.5-.85-1.21-.83-2.22-1.06-2.5,.85Z"/></svg>